HIERARCHY
ROOT Hips
{
	OFFSET 0.000000 0.000000 0.000000
	CHANNELS 6 Xposition Yposition Zposition Zrotation Yrotation Xrotation 
	JOINT LHipJoint
	{
		OFFSET 0.000000 0.000000 0.000000
		CHANNELS 3 Zrotation Yrotation Xrotation
		JOINT LeftUpLeg
		{
			OFFSET 1.363060 -1.794630 0.839290
			CHANNELS 3 Zrotation Yrotation Xrotation
			JOINT LeftLeg
			{
				OFFSET 2.448110 -6.726130 0.000000
				CHANNELS 3 Zrotation Yrotation Xrotation
				JOINT LeftFoot
				{
					OFFSET 2.562200 -7.039590 0.000000
					CHANNELS 3 Zrotation Yrotation Xrotation
					JOINT LeftToeBase
					{
						OFFSET 0.157640 -0.433110 2.322550
						CHANNELS 3 Zrotation Yrotation Xrotation
						End Site
						{
							OFFSET 0.000000 0.000000 0.000000
						}
					}
				}
			}
		}
	}
	JOINT RHipJoint
	{
		OFFSET 0.000000 0.000000 0.000000
		CHANNELS 3 Zrotation Yrotation Xrotation
		JOINT RightUpLeg
		{
			OFFSET -1.305520 -1.794630 0.839290
			CHANNELS 3 Zrotation Yrotation Xrotation
			JOINT RightLeg
			{
				OFFSET -2.542530 -6.985550 0.000000
				CHANNELS 3 Zrotation Yrotation Xrotation
				JOINT RightFoot
				{
					OFFSET -2.568260 -7.056230 0.000000
					CHANNELS 3 Zrotation Yrotation Xrotation
					JOINT RightToeBase
					{
						OFFSET -0.164730 -0.452590 2.363150
						CHANNELS 3 Zrotation Yrotation Xrotation
						End Site
						{
							OFFSET 0.000000 0.000000 0.000000
						}
					}
				}
			}
		}
	}
	JOINT LowerBack
	{
		OFFSET 0.000000 0.000000 0.000000
		CHANNELS 3 Zrotation Yrotation Xrotation
		JOINT Spine
		{
			OFFSET 0.028270 2.035590 -0.193380
			CHANNELS 3 Zrotation Yrotation Xrotation
			JOINT Spine1
			{
				OFFSET 0.056720 2.048850 -0.042750
				CHANNELS 3 Zrotation Yrotation Xrotation
				JOINT Neck
				{
					OFFSET 0.000000 0.000000 0.000000
					CHANNELS 3 Zrotation Yrotation Xrotation
					JOINT Neck1
					{
						OFFSET -0.054170 1.746240 0.172020
						CHANNELS 3 Zrotation Yrotation Xrotation
						JOINT Head
						{
							OFFSET 0.104070 1.761360 -0.123970
							CHANNELS 3 Zrotation Yrotation Xrotation
							End Site
							{
								OFFSET 0.000000 0.000000 0.000000
							}
						}
					}
				}
				JOINT LeftShoulder
				{
					OFFSET 0.000000 0.000000 0.000000
					CHANNELS 3 Zrotation Yrotation Xrotation
					JOINT LeftArm
					{
						OFFSET 3.362410 1.200890 -0.311210
						CHANNELS 3 Zrotation Yrotation Xrotation
						JOINT LeftForeArm
						{
							OFFSET 4.983000 -0.000000 -0.000000
							CHANNELS 3 Zrotation Yrotation Xrotation
							JOINT LeftHand
							{
								OFFSET 3.483560 -0.000000 -0.000000
								CHANNELS 3 Zrotation Yrotation Xrotation
								JOINT LeftFingerBase
								{
									OFFSET 0.000000 0.000000 0.000000
									CHANNELS 3 Zrotation Yrotation Xrotation
									JOINT LeftHandIndex1
									{
										OFFSET 0.715260 -0.000000 -0.000000
										CHANNELS 3 Zrotation Yrotation Xrotation
										End Site
										{
											OFFSET 0.000000 0.000000 0.000000
										}
									}
								}
								JOINT LThumb
								{
									OFFSET 0.000000 0.000000 0.000000
									CHANNELS 3 Zrotation Yrotation Xrotation
									End Site
									{
										OFFSET 0.000000 0.000000 0.000000
									}
								}
							}
						}
					}
				}
				JOINT RightShoulder
				{
					OFFSET 0.000000 0.000000 0.000000
					CHANNELS 3 Zrotation Yrotation Xrotation
					JOINT RightArm
					{
						OFFSET -3.136600 1.374050 -0.404650
						CHANNELS 3 Zrotation Yrotation Xrotation
						JOINT RightForeArm
						{
							OFFSET -5.241900 -0.000000 -0.000000
							CHANNELS 3 Zrotation Yrotation Xrotation
							JOINT RightHand
							{
								OFFSET -3.444170 -0.000000 -0.000000
								CHANNELS 3 Zrotation Yrotation Xrotation
								JOINT RightFingerBase
								{
									OFFSET 0.000000 0.000000 0.000000
									CHANNELS 3 Zrotation Yrotation Xrotation
									JOINT RightHandIndex1
									{
										OFFSET -0.622530 -0.000000 -0.000000
										CHANNELS 3 Zrotation Yrotation Xrotation
										End Site
										{
											OFFSET 0.000000 0.000000 0.000000
										}
									}
								}
								JOINT RThumb
								{
									OFFSET 0.000000 0.000000 0.000000
									CHANNELS 3 Zrotation Yrotation Xrotation
									End Site
									{
										OFFSET 0.000000 0.000000 0.000000
									}
								}
							}
						}
					}
				}
			}
		}
	}
}
MOTION
Frames: 11
Frame Time: 0.008333
8.665083 18.269937 -8.270841 -8.110270 6.758455 13.271656 -3.421782 3.759970 3.349322 1.108413 -21.215359 -27.980102 1.506355 8.117753 26.190795 0.053689 0.855256 2.316656 0.027000 -1.060800 -2.916100 -3.230176 -5.992241 4.141685 19.650901 22.776800 -20.839411 -1.182927 -4.447348 17.818108 7.339127 -25.093294 -3.868492 -0.276600 3.382700 -9.346100 0.677628 9.746681 3.498836 -20.627852 13.170843 20.092888 -0.481549 6.020404 -4.534726 -0.713197 8.060268 -14.091224 7.555836 9.512940 34.236797 4.393200 5.264100 9.455100 -3.375117 -3.246474 -1.204209 -72.399482 -30.893180 17.980069 17.179653 -25.108912 -4.268279 -1.039531 -1.377838 -29.023197 43.556538 13.929873 14.131900 -7.125000 0.000000 0.000000 17.581800 49.301400 1.918400 5.223816 3.628332 2.220459 90.611808 45.919426 81.730944 -102.913277 62.180163 -82.215160 -0.498956 3.051889 -22.415066 -21.185289 13.168256 -3.962400 7.125000 0.000000 0.000000 3.582500 -19.340500 2.198100 
8.670697 18.277003 -8.272197 -8.161755 6.729960 13.191070 -3.441382 3.773696 3.354553 1.158092 -21.320835 -27.788704 1.488443 8.078043 26.078058 0.006179 1.043772 2.297566 0.030100 -1.119500 -3.077800 -3.226820 -5.999142 4.135444 19.590218 22.746225 -20.779196 -1.186327 -4.452574 17.815324 7.247363 -24.816209 -3.404008 -0.269500 3.339400 -9.225000 0.542749 9.627386 3.501259 -20.816084 13.005344 19.927805 -0.494989 5.926280 -4.545926 -0.357663 8.222216 -13.979143 7.305712 9.768793 34.188231 4.284100 5.383100 9.435200 -3.336799 -3.260863 -1.198233 -72.308605 -31.475510 17.592479 17.028286 -24.891131 -4.197826 -1.059991 -1.351437 -28.257750 43.418992 13.867689 13.995800 -7.125000 0.000000 0.000000 17.414200 49.172400 1.842400 5.174286 3.672245 2.289672 89.875843 46.952900 80.731746 -103.773945 61.998542 -82.665087 -0.564514 3.010701 -23.265767 -21.078563 12.775621 -3.792300 7.125000 0.000000 0.000000 3.673900 -19.738400 2.221800 
8.676504 18.286779 -8.272293 -8.328226 6.709914 13.116742 -3.447839 3.784106 3.364201 1.324022 -21.358193 -27.613560 1.460679 8.034016 25.918459 -0.027250 1.189890 2.323043 0.027400 -1.068900 -2.938300 -3.228668 -6.001122 4.131794 19.706546 22.662629 -20.727037 -1.191247 -4.458479 17.823065 7.133855 -24.477927 -2.848786 -0.308500 3.570700 -9.872000 0.540395 9.560859 3.518985 -20.934407 12.916193 19.843420 -0.496597 5.872942 -4.594339 -0.292616 8.355835 -14.122968 7.183666 9.980655 34.218820 4.271800 5.474600 9.459700 -3.323355 -3.267654 -1.181679 -72.370186 -32.078625 17.424559 16.967734 -24.797113 -4.172268 -1.087666 -1.354737 -27.817215 44.037737 14.156109 14.558400 -7.125000 0.000000 0.000000 18.162600 49.675800 2.157300 5.196838 3.672751 2.279091 89.797537 46.724253 80.393382 -104.373288 61.983755 -82.970966 -0.589303 3.016629 -22.853550 -21.945778 12.981667 -4.019300 7.125000 0.000000 0.000000 3.087100 -19.497800 1.882400 
8.684151 18.295588 -8.270357 -8.401724 6.648586 12.984446 -3.456093 3.797391 3.384574 1.332126 -21.337792 -27.368959 1.431644 7.981174 25.765505 -0.057983 1.313853 2.346854 0.027200 -1.064300 -2.925700 -3.212187 -6.016492 4.137412 19.676812 22.627451 -20.626338 -1.198580 -4.470600 17.837331 7.025237 -24.157539 -2.270200 -0.360900 3.859400 -10.681600 0.278646 9.537130 3.373045 -20.810758 12.880601 19.941362 -0.349865 5.856370 -4.524215 -0.403883 8.453096 -14.267173 7.105328 10.159056 34.273181 4.292400 5.540800 9.487400 -3.321122 -3.276480 -1.169163 -72.619458 -32.718164 17.438052 16.980392 -24.792873 -4.179558 -1.107344 -1.359762 -27.350829 44.467410 14.526136 15.121000 -7.125000 0.000000 0.000000 18.734900 50.255700 2.503900 5.179080 3.688910 2.262078 89.253325 46.737466 79.617645 -105.075241 61.879131 -83.340211 -0.625737 2.997593 -22.580345 -22.419232 12.810132 -4.027500 7.125000 0.000000 0.000000 2.782800 -19.657300 1.686500 
8.696734 18.302170 -8.268712 -8.348667 6.530936 12.783501 -3.481967 3.823427 3.414637 1.162864 -21.381742 -26.992845 1.408674 7.920776 25.643837 -0.106526 1.489098 2.277300 0.026800 -1.057400 -2.906800 -3.181811 -6.045100 4.150241 19.464615 22.581255 -20.473757 -1.205456 -4.488006 17.858989 6.912883 -23.824445 -1.754269 -0.388400 4.001700 -11.081500 -0.143581 9.509551 3.148063 -20.583753 12.838124 20.138456 -0.097510 5.838467 -4.389563 -0.674352 8.504006 -14.162145 7.012169 10.309038 34.126432 4.303200 5.574100 9.413100 -3.325067 -3.289773 -1.157666 -73.017978 -33.391673 17.325536 16.988021 -24.769213 -4.178813 -1.120769 -1.347503 -26.544595 44.392941 14.764811 15.305300 -7.125000 0.000000 0.000000 18.708900 50.549700 2.638800 5.155085 3.709799 2.227628 88.674117 46.660056 78.699265 -105.783139 61.754892 -83.735823 -0.649059 2.973378 -22.505165 -22.493501 12.746889 -4.014600 7.125000 0.000000 0.000000 2.753600 -19.707100 1.665700 
8.707285 18.309526 -8.270745 -8.382329 6.406673 12.663711 -3.506216 3.839309 3.430352 1.134841 -21.407008 -26.731903 1.383582 7.871182 25.504723 -0.164359 1.715050 2.237437 0.028700 -1.094200 -3.008000 -3.175167 -6.058197 4.147049 19.384986 22.555445 -20.399458 -1.217235 -4.510364 17.897463 6.822520 -23.569916 -1.204788 -0.404500 4.082900 -11.310100 -0.281299 9.437810 3.090392 -20.689687 12.735399 20.083635 -0.019115 5.776985 -4.384159 -0.678911 8.595755 -14.061176 6.913345 10.470066 34.093118 4.286000 5.634900 9.382500 -3.313249 -3.293511 -1.141530 -73.184085 -33.874586 17.219952 17.043436 -24.818488 -4.200434 -1.128377 -1.322836 -25.997899 44.254832 14.577986 15.050900 -7.125000 0.000000 0.000000 18.497800 50.264700 2.474400 5.185212 3.709289 2.199785 88.599578 46.232002 78.082181 -106.639269 61.695834 -84.197031 -0.703811 2.964983 -22.267499 -23.393421 12.622726 -4.108200 7.125000 0.000000 0.000000 2.150300 -19.813300 1.295100 
8.712415 18.315624 -8.274326 -8.476383 6.204033 12.625947 -3.528291 3.837768 3.431087 1.214402 -21.292698 -26.600114 1.353839 7.842557 25.365368 -0.188229 1.828957 2.267529 0.023500 -0.989400 -2.719800 -3.198274 -6.052174 4.116172 19.403910 22.643169 -20.389793 -1.233499 -4.537145 17.959512 6.730764 -23.319967 -0.642184 -0.437000 4.241800 -11.758000 -0.180003 9.361559 3.267197 -21.210550 12.613393 19.717887 -0.151635 5.692525 -4.540782 -0.389840 8.722302 -13.927201 6.928249 10.593577 34.078460 4.256300 5.718800 9.361700 -3.270206 -3.288160 -1.128704 -72.882845 -33.951833 17.509837 17.299330 -25.161833 -4.325928 -1.125367 -1.318363 -25.856568 44.494824 14.632879 15.221800 -7.125000 0.000000 0.000000 18.768500 50.392800 2.573500 5.256335 3.685421 2.190834 88.908591 45.703806 77.500125 -107.522853 61.656116 -84.697650 -0.751600 2.959139 -22.023348 -24.030068 12.561003 -4.180000 7.125000 0.000000 0.000000 1.732500 -19.864900 1.041200 
8.724901 18.324432 -8.280037 -8.495028 6.091986 12.553239 -3.550121 3.844641 3.438208 1.169944 -21.269053 -26.435503 1.331026 7.804177 25.249407 -0.222455 1.963082 2.287267 0.026200 -1.045300 -2.873400 -3.202439 -6.053867 4.109579 19.278661 22.610889 -20.401493 -1.244030 -4.570059 18.054828 6.564459 -22.819513 -0.296381 -0.441400 4.262800 -11.817200 -0.273310 9.264676 3.325590 -21.434776 12.473501 19.571716 -0.132320 5.611181 -4.620557 -0.313091 8.807092 -13.855129 6.899698 10.707938 34.033847 4.242400 5.775300 9.335800 -3.245905 -3.281729 -1.119377 -72.831428 -34.012199 17.870795 17.613763 -25.577903 -4.480257 -1.125095 -1.313685 -25.542369 44.831595 14.742936 15.499100 -7.125000 0.000000 0.000000 19.163400 50.620700 2.741400 5.294550 3.671824 2.162566 88.804284 45.305188 76.590804 -108.353111 61.539717 -85.212960 -0.757122 2.941572 -22.029599 -23.611894 12.787107 -4.208100 7.125000 0.000000 0.000000 2.051200 -19.624200 1.243900 
8.737001 18.330820 -8.284489 -8.650558 5.998729 12.414023 -3.562267 3.866343 3.454230 1.288187 -21.321263 -26.214601 1.318169 7.785175 25.171916 -0.256491 2.103783 2.260187 0.024700 -1.015100 -2.790500 -3.211575 -6.050201 4.100646 19.361553 22.571411 -20.307996 -1.255494 -4.592427 18.136137 6.432098 -22.422946 0.068421 -0.443200 4.271500 -11.841800 -0.177639 9.153536 3.521097 -21.642131 12.322567 19.385119 -0.198003 5.528382 -4.812784 -0.224809 8.924072 -13.712931 6.814758 10.887203 33.953231 4.208200 5.858300 9.282000 -3.228708 -3.273768 -1.108679 -72.824185 -34.073094 18.274294 17.907892 -25.968805 -4.628115 -1.126735 -1.314867 -25.295805 45.282507 14.924075 15.911000 -7.125000 0.000000 0.000000 19.715700 50.972200 3.000700 5.340379 3.653280 2.123692 88.649686 44.850498 75.570914 -109.177799 61.414425 -85.714527 -0.772729 2.923013 -22.218408 -23.265152 12.924980 -4.207000 7.125000 0.000000 0.000000 2.314200 -19.478600 1.411200 
8.747454 18.334789 -8.288264 -8.816035 5.934562 12.184923 -3.530369 3.882074 3.499277 1.338235 -21.270729 -25.974575 1.315332 7.766713 25.143924 -0.269936 2.151238 2.248393 0.024800 -1.016300 -2.793800 -3.173561 -6.082745 4.148542 19.458446 22.439012 -20.205063 -1.266326 -4.615629 18.191267 6.332152 -22.141818 0.537482 -0.444400 4.277200 -11.858000 -0.698623 9.141783 3.024330 -20.913101 12.326298 19.933126 0.229480 5.549070 -4.478109 -0.467926 9.001270 -13.709840 6.260967 11.206775 33.575862 4.097600 5.914100 9.181800 -3.272597 -3.268756 -1.115714 -73.497556 -34.833746 18.505628 18.067077 -26.128967 -4.697958 -1.134702 -1.293315 -24.658046 45.191233 14.824720 15.761300 -7.125000 0.000000 0.000000 19.574600 50.815300 2.900300 5.255694 3.710363 2.072459 87.552319 44.993004 74.340177 -110.124088 61.164199 -86.196036 -0.828224 2.882693 -22.442784 -23.943497 12.708394 -4.238100 7.125000 0.000000 0.000000 1.860800 -19.656500 1.127000 
8.757037 18.335176 -8.298815 -9.032409 5.854274 12.029660 -3.525417 3.899841 3.520303 1.505925 -21.171892 -25.892240 1.313287 7.789633 25.149166 -0.258539 2.130678 2.280746 0.024800 -1.016700 -2.794800 -3.191374 -6.064939 4.129211 19.657584 22.394888 -20.118960 -1.280178 -4.628593 18.238223 6.285805 -22.027598 0.949891 -0.449400 4.300700 -11.924200 -0.429066 8.997144 3.438235 -21.224629 12.147494 19.690680 0.008018 5.446204 -4.774247 -0.314697 9.115039 -13.686241 6.207640 11.361114 33.626389 4.071300 5.998100 9.187500 -3.244959 -3.270684 -1.093425 -73.418767 -35.139448 18.855886 18.158942 -26.248088 -4.746420 -1.136529 -1.274370 -24.183684 45.115170 14.735714 15.629400 -7.125000 0.000000 0.000000 19.452000 50.676000 2.812600 5.304583 3.689899 2.041859 87.286864 44.640061 73.384418 -111.196129 60.995539 -86.769654 -0.919003 2.849269 -22.655544 -24.930191 12.089113 -4.119600 7.125000 0.000000 0.000000 1.187200 -20.285600 0.702100 
